<?xml version="1.0" encoding="utf-8"?>
<!-- Generator: Adobe Illustrator 24.0.0, SVG Export Plug-In . SVG Version: 6.00 Build 0)  -->
<svg version="1.1" id="Layer_1" xmlns="http://www.w3.org/2000/svg" xmlns:xlink="http://www.w3.org/1999/xlink" x="0px" y="0px"
	 viewBox="0 0 118 111" style="enable-background:new 0 0 118 111;" xml:space="preserve">
<style type="text/css">
	.st0{opacity:0.3;}
	.st1{fill-rule:evenodd;clip-rule:evenodd;fill:#514F4F;}
</style>
<g id="Mail_Icxon" class="st0">
	<g>
		<path class="st1" d="M102.7,18.6c-1.8-1-3.8-1.6-6-1.6H21.3c-2.2,0-4.2,0.6-6,1.6l43.7,39L102.7,18.6z M10.6,23
			c-1.2,2-2,4.3-2,6.8v51.3c0,2.2,0.6,4.4,1.6,6.2L42,51L10.6,23z M107.4,23L76,51l31.8,36.3c1-1.8,1.6-3.9,1.6-6.2V29.9
			C109.3,27.3,108.6,25,107.4,23z M61.1,64.3c-0.6,0.5-1.3,0.8-2.1,0.8s-1.5-0.3-2.1-0.8l-10.1-9L14.6,92c1.9,1.2,4.2,2,6.6,2h75.5
			c2.4,0,4.7-0.7,6.6-2L71.1,55.3L61.1,64.3z"/>
	</g>
</g>
</svg>
