<?xml version="1.0" encoding="utf-8"?>
<!-- Generator: Adobe Illustrator 24.0.0, SVG Export Plug-In . SVG Version: 6.00 Build 0)  -->
<svg version="1.1" id="Layer_1" xmlns="http://www.w3.org/2000/svg" xmlns:xlink="http://www.w3.org/1999/xlink" x="0px" y="0px"
	 viewBox="0 0 160 143" style="enable-background:new 0 0 160 143;" xml:space="preserve">
<style type="text/css">
	.st0{opacity:0.85;}
	.st1{fill:url(#SVGID_1_);}
	.st2{opacity:0.85;fill:none;stroke:url(#SVGID_2_);stroke-width:2;stroke-miterlimit:10;}
	.st3{opacity:0.85;fill:none;stroke:url(#SVGID_3_);stroke-width:2;stroke-miterlimit:10;}
	.st4{opacity:0.85;fill:none;stroke:url(#SVGID_4_);stroke-width:2;stroke-miterlimit:10;}
	.st5{opacity:0.85;fill:none;stroke:url(#SVGID_5_);stroke-width:2;stroke-miterlimit:10;}
</style>
<g class="st0">
	<g>
		<linearGradient id="SVGID_1_" gradientUnits="userSpaceOnUse" x1="57.1798" y1="79.8872" x2="103.7302" y2="79.8872">
			<stop  offset="0" style="stop-color:#FFFFFF"/>
			<stop  offset="0" style="stop-color:#69006A"/>
			<stop  offset="0.1581" style="stop-color:#EBD4FF"/>
			<stop  offset="0.1616" style="stop-color:#D494FF"/>
			<stop  offset="0.3982" style="stop-color:#70007F"/>
			<stop  offset="0.8326" style="stop-color:#380055"/>
		</linearGradient>
		<path class="st1" d="M79.2,79.8c-0.1-0.1-0.1-0.2-0.2-0.3c-0.1-0.1-0.3-0.4-0.1-0.2c-0.1-0.2-0.2-0.4-0.3-0.5
			c-0.6-1.1-1.2-2.1-1.6-3.3c-1.6-3.6-2.5-7.5-2.8-11.5c-0.3-5.4,1-11,3.6-15.7c0.5-1,1.2-2,2.1-2.6c0,0,0.4-0.2,0.2-0.1
			c0,0,0.5-0.1,0.2-0.1c-0.3,0.1-0.1,0,0,0c0.1,0,0.2,0,0.3-0.1c0,0-0.5-0.1-0.1,0c0.6,0.1-0.2-0.1,0.2,0c0.1,0,0.2,0,0.3,0.1
			c0.3,0.1,0,0,0,0c0.2,0.1,0.4,0.2,0.7,0.3c0.1,0,0.3,0.2,0.1,0.1c0.1,0.1,0.2,0.2,0.4,0.2c2.6,2.1,3,6.5,3.2,9.6
			c0.2,3.2-0.1,6.2-0.7,9.3c-1.5,7-4.1,13.8-7,20.3c-2.9,6.5-6.2,12.9-10,18.9c-1.5,2.3-2.9,4.6-4.7,6.7c-0.6,0.8-1.3,1.6-1.9,2.2
			c-0.1,0.1,0.3-0.2,0,0c-0.1,0.1-0.2,0.2-0.2,0.2c-0.1,0.1-0.3,0.2-0.4,0.4c-0.1,0.1-0.3,0.2-0.4,0.3c0.2-0.2,0.4-0.2,0,0
			c-0.3,0.1,0.3-0.1,0.3-0.1c-0.1,0.1-0.4,0.1,0.1,0c0.4-0.1,0.6-0.2,1.1-0.2c0.2,0,0.5,0,0.6,0.1c-0.3-0.1,0.3,0.2,0.1,0
			c-0.1-0.1-0.2-0.3-0.1,0c-0.1-0.1-0.1-0.2-0.1-0.3c-0.3-0.9-0.2-1.8-0.1-2.8c0.3-1.6,0.7-3.1,1.2-4.7c1.5-5.1,3.2-10.3,5.4-15.1
			c2.6-5.7,6.2-11.5,10.6-15.8c2.4-2.3,4.7-4,7.6-5.4c-0.4,0.2,0,0,0.2-0.1c0.2-0.1,0.4-0.2,0.5-0.2c0.4-0.2,0.8-0.3,1.2-0.5
			c0.2-0.1,0.4-0.1,0.5-0.2c0.3-0.1-0.1,0-0.1,0.1c0.1,0,0.2-0.1,0.4-0.1c0.4-0.1,0.8-0.2,1.3-0.4c0.2-0.1,0.4-0.1,0.6-0.1
			c0.1,0,0.2,0,0.3-0.1c0,0-0.4,0.1-0.1,0c0.4-0.1,0.9-0.2,1.3-0.2c0.5-0.1,0.9-0.1,1.4-0.2c0.3,0,0,0-0.1,0c0.1,0,0.2,0,0.3,0
			c0.2,0,0.5,0,0.7,0c1.8-0.1,3.4,0.1,5.2,0.4c1.1,0.2,2.3-0.2,3.2-0.9c0.7-0.6,0.6-1.3-0.4-1.5c-8.1-1.3-16.2,0.5-23,5.1
			c-5.8,4-10.2,9.8-13.6,15.9c-3,5.4-5.3,11.3-7.1,17.3c-0.6,1.9-1.2,4-1.6,5.9c-0.4,1.5-0.7,2.9-0.4,4.4c0.1,0.6,0.5,1.2,1.1,1.5
			c2,0.9,4.6-0.6,6-1.8c1.7-1.6,3.1-3.5,4.5-5.3c4.2-5.9,7.6-12.2,10.8-18.7c3.4-7.1,6.5-14.4,8.5-21.9c0.8-3,1.5-6.1,1.6-9.3
			c0.1-2.3,0-4.7-0.4-6.9c-0.3-1.8-0.8-3.7-1.7-5.3c-1.5-2.4-3.9-3.3-6.6-2.9c-2.8,0.4-5.4,1.8-7,4.2c-1.6,2.6-2.8,5.6-3.6,8.5
			c-2,8.1-0.6,16.9,3.6,24.1c0.3,0.5,0.6,1,0.9,1.4C75.7,82.7,80.1,81.2,79.2,79.8L79.2,79.8z"/>
	</g>
</g>
<linearGradient id="SVGID_2_" gradientUnits="userSpaceOnUse" x1="78.81" y1="32.2035" x2="89.1549" y2="32.2035">
	<stop  offset="0" style="stop-color:#FFFFFF"/>
	<stop  offset="0" style="stop-color:#69006A"/>
	<stop  offset="0.1581" style="stop-color:#EBD4FF"/>
	<stop  offset="0.1616" style="stop-color:#D494FF"/>
	<stop  offset="0.3982" style="stop-color:#70007F"/>
	<stop  offset="0.8326" style="stop-color:#380055"/>
</linearGradient>
<circle class="st2" cx="84" cy="32.2" r="4.2"/>
<linearGradient id="SVGID_3_" gradientUnits="userSpaceOnUse" x1="17.3296" y1="72.23" x2="140.344" y2="72.23">
	<stop  offset="0" style="stop-color:#FFFFFF"/>
	<stop  offset="0" style="stop-color:#69006A"/>
	<stop  offset="0.1581" style="stop-color:#EBD4FF"/>
	<stop  offset="0.1616" style="stop-color:#D494FF"/>
	<stop  offset="0.4638" style="stop-color:#70007F"/>
	<stop  offset="0.6635" style="stop-color:#710281"/>
	<stop  offset="0.7354" style="stop-color:#750986"/>
	<stop  offset="0.7867" style="stop-color:#7C1491"/>
	<stop  offset="0.8282" style="stop-color:#86259F"/>
	<stop  offset="0.8637" style="stop-color:#943BB2"/>
	<stop  offset="0.8952" style="stop-color:#A457CA"/>
	<stop  offset="0.9229" style="stop-color:#B776E5"/>
	<stop  offset="0.9442" style="stop-color:#C994FF"/>
</linearGradient>
<polyline class="st3" points="109,20 48.7,20 18.5,72.2 48.7,124.5 109,124.5 139.2,72.2 126.6,49.5 "/>
<linearGradient id="SVGID_4_" gradientUnits="userSpaceOnUse" x1="9.5645" y1="42.9183" x2="108.8232" y2="42.9183">
	<stop  offset="0" style="stop-color:#FFFFFF"/>
	<stop  offset="0" style="stop-color:#69006A"/>
	<stop  offset="0.1581" style="stop-color:#EBD4FF"/>
	<stop  offset="0.1616" style="stop-color:#D494FF"/>
	<stop  offset="0.3982" style="stop-color:#70007F"/>
	<stop  offset="0.8326" style="stop-color:#380055"/>
</linearGradient>
<polyline class="st4" points="10.4,72.7 44.5,13.7 108.8,13.7 "/>
<linearGradient id="SVGID_5_" gradientUnits="userSpaceOnUse" x1="9.5641" y1="89.6153" x2="147.9114" y2="89.6153">
	<stop  offset="0" style="stop-color:#FFFFFF"/>
	<stop  offset="0" style="stop-color:#69006A"/>
	<stop  offset="0.1581" style="stop-color:#EBD4FF"/>
	<stop  offset="0.1616" style="stop-color:#D494FF"/>
	<stop  offset="0.4638" style="stop-color:#70007F"/>
	<stop  offset="0.6635" style="stop-color:#710281"/>
	<stop  offset="0.7354" style="stop-color:#750986"/>
	<stop  offset="0.7867" style="stop-color:#7C1491"/>
	<stop  offset="0.8282" style="stop-color:#86259F"/>
	<stop  offset="0.8637" style="stop-color:#943BB2"/>
	<stop  offset="0.8952" style="stop-color:#A457CA"/>
	<stop  offset="0.9229" style="stop-color:#B776E5"/>
	<stop  offset="0.9442" style="stop-color:#C994FF"/>
</linearGradient>
<polyline class="st5" points="132.6,47 146.8,72.7 112.7,131.8 44.5,131.8 10.4,72.7 "/>
</svg>
