<?xml version="1.0" encoding="utf-8"?>
<!-- Generator: Adobe Illustrator 24.0.0, SVG Export Plug-In . SVG Version: 6.00 Build 0)  -->
<svg version="1.1" id="Layer_1" xmlns="http://www.w3.org/2000/svg" xmlns:xlink="http://www.w3.org/1999/xlink" x="0px" y="0px"
	 viewBox="0 0 132.3 132.5" style="enable-background:new 0 0 132.3 132.5;" xml:space="preserve">
<style type="text/css">
	.st0{opacity:0.3;}
	.st1{fill-rule:evenodd;clip-rule:evenodd;fill:#514F4F;}
</style>
<g id="Phone_Icon" class="st0">
	<g>
		<path class="st1" d="M118.1,92.6c-0.3-1.5-1.2-2.7-2.7-3.6L94.1,76.4H94c-0.7-0.4-1.7-0.7-3-0.7c-1.8,0-3.3,0.6-4.6,1.8l-6.3,6.4
			c-0.1,0.1-0.4,0.3-0.7,0.4c-0.3,0.1-0.6,0.2-0.7,0.2l-1.4-0.3c-0.9-0.2-2.2-0.7-4-1.6c-1.7-0.9-3.9-2.3-6.4-4.1
			c-2.6-1.9-5.5-4.5-8.8-7.9c-3.4-3.3-6-6.2-7.8-8.8c-1.8-2.5-3.2-4.7-4.1-6.5c-1-2-1.7-3.7-2-5.3c0-0.2,0.1-0.5,0.2-0.8
			s0.2-0.6,0.4-0.7l5.4-5.4c0.9-0.9,1.6-2.1,1.9-3.5c0.3-1.4,0.1-2.7-0.5-3.8L39.7,13.3c-0.5-0.8-1.1-1.5-1.9-2.1
			c-0.7-0.6-1.6-0.8-2.5-0.8c-1.3,0-2.5,0.5-3.5,1.5L17.2,26.6c-0.7,0.7-1.3,1.5-1.9,2.6c-0.5,1.1-0.8,2.1-1,3.2
			c0,0.1,0,0.9-0.1,2.2s0.1,3.2,0.4,5.5c0.4,2.3,1.1,5.1,2.1,8.3s2.6,6.8,4.6,10.7c2.1,3.9,4.8,8.2,8.1,12.9
			c3.4,4.6,7.6,9.5,12.8,14.5c6.5,6.5,12.5,11.7,18.3,15.4c5.7,3.7,10.8,6.6,15.4,8.4c4.5,1.9,8.3,3,11.4,3.5s5.4,0.7,6.8,0.7
			c0.6,0,1.1,0,1.4-0.1c0.4,0,0.6-0.1,0.7-0.1c1-0.1,2.1-0.5,3.1-1c1.1-0.5,1.9-1.1,2.6-1.9l14.6-14.5
			C117.8,95.8,118.3,94.3,118.1,92.6z"/>
	</g>
</g>
</svg>
