<?xml version="1.0" encoding="utf-8"?>
<!-- Generator: Adobe Illustrator 24.0.0, SVG Export Plug-In . SVG Version: 6.00 Build 0)  -->
<svg version="1.1" id="Layer_1" xmlns="http://www.w3.org/2000/svg" xmlns:xlink="http://www.w3.org/1999/xlink" x="0px" y="0px"
	 viewBox="0 0 126 144" style="enable-background:new 0 0 126 144;" xml:space="preserve">
<style type="text/css">
	.st0{opacity:0.3;fill:#514F4F;enable-background:new    ;}
</style>
<path class="st0" d="M111.8,50.7c-8.2-18.8-27-32-48.8-32s-40.6,13.2-48.8,32c0,0,0,0,0,0.1C11.3,57.3,9.8,64.5,9.8,72
	s1.6,14.7,4.4,21.2c0,0,0,0,0,0.1c8.2,18.8,27,32,48.8,32s40.6-13.2,48.8-32c0,0,0,0,0-0.1c2.8-6.5,4.4-13.7,4.4-21.2
	S114.7,57.3,111.8,50.7C111.8,50.8,111.8,50.7,111.8,50.7z M63,115.6c-3.8,0-8.8-7.1-11.8-19.4h23.6C71.8,108.4,66.8,115.6,63,115.6
	z M49.4,86.5c-0.6-4.4-0.9-9.3-0.9-14.5s0.3-10.1,0.9-14.5h27.2c0.6,4.4,0.9,9.3,0.9,14.5s-0.3,10.1-0.9,14.5H49.4z M19.4,72
	c0-5.1,0.9-10,2.5-14.5h17.7c-0.6,4.8-0.9,9.7-0.9,14.5s0.3,9.8,0.9,14.5H22C20.4,82,19.4,77.1,19.4,72z M63,28.4
	c3.8,0,8.8,7.1,11.8,19.4H51.2C54.2,35.6,59.2,28.4,63,28.4z M86.3,57.5H104c1.6,4.6,2.5,9.4,2.5,14.5s-0.9,10-2.5,14.5H86.3
	c0.6-4.8,0.9-9.7,0.9-14.5S86.9,62.2,86.3,57.5z M99.2,47.8H84.7c-1.3-6.1-3.2-11.6-5.6-16.2C87.3,34.8,94.3,40.5,99.2,47.8z
	 M46.9,31.5c-2.4,4.6-4.2,10.2-5.6,16.2H26.8C31.7,40.5,38.7,34.8,46.9,31.5z M26.8,96.2h14.5c1.3,6.1,3.2,11.6,5.6,16.2
	C38.7,109.2,31.7,103.5,26.8,96.2z M79.1,112.5c2.4-4.6,4.2-10.2,5.6-16.2h14.5C94.3,103.5,87.3,109.2,79.1,112.5z"/>
</svg>
